<?xml version="1.0" encoding="UTF-8"?>
<svg id="Layer_1" data-name="Layer 1" xmlns="http://www.w3.org/2000/svg" xmlns:xlink="http://www.w3.org/1999/xlink" viewBox="0 0 646 191.41">
  <defs>
    <style>
      .cls-1 {
        fill: none;
      }

      .cls-2 {
        clip-path: url(#clippath);
      }

      .cls-3 {
        fill: #f9bd00;
      }

      .cls-4 {
        fill: #fff;
      }

      .cls-5 {
        fill: #afacab;
      }

      .cls-6 {
        fill: #e43629;
      }

      .cls-7 {
        fill: #12100b;
      }

      .cls-8 {
        fill: #30a043;
      }

      .cls-9 {
        fill: #587dbe;
      }

      .cls-10 {
        clip-path: url(#clippath-1);
      }
    </style>
    <clipPath id="clippath">
      <rect class="cls-1" width="646" height="191.41"/>
    </clipPath>
    <clipPath id="clippath-1">
      <rect class="cls-1" y="0" width="646" height="191.41"/>
    </clipPath>
  </defs>
  <g class="cls-2">
    <g class="cls-10">
      <path class="cls-7" d="M622.07,191.41H23.93c-13.16,0-23.93-10.77-23.93-23.93V23.93C0,10.77,10.77,0,23.93,0H622.07c13.16,0,23.93,10.77,23.93,23.93V167.48c0,13.16-10.77,23.93-23.93,23.93"/>
      <path class="cls-5" d="M622.07,3.83c11.08,0,20.1,9.02,20.1,20.1V167.48c0,11.08-9.02,20.1-20.1,20.1H23.93c-11.08,0-20.1-9.02-20.1-20.1V23.93C3.83,12.84,12.84,3.83,23.93,3.83H622.07ZM622.07,0H23.93C10.77,0,0,10.77,0,23.93V167.48c0,13.16,10.77,23.93,23.93,23.93H622.07c13.16,0,23.93-10.77,23.93-23.93V23.93C646,10.77,635.23,0,622.07,0"/>
      <path class="cls-4" d="M326.04,104.08c-11.25,0-20.43,8.56-20.43,20.36s9.17,20.35,20.43,20.35,20.43-8.64,20.43-20.35-9.17-20.36-20.43-20.36m0,32.69c-6.17,0-11.49-5.09-11.49-12.33s5.32-12.34,11.49-12.34,11.48,5.01,11.48,12.34-5.32,12.33-11.48,12.33m-44.57-32.69c-11.25,0-20.43,8.56-20.43,20.36s9.17,20.35,20.43,20.35,20.43-8.64,20.43-20.35-9.18-20.36-20.43-20.36m0,32.69c-6.16,0-11.48-5.09-11.48-12.33s5.32-12.34,11.48-12.34,11.49,5.01,11.49,12.34-5.32,12.33-11.49,12.33m-53.01-26.44v8.63h20.66c-.62,4.86-2.23,8.4-4.7,10.87-3.01,3.01-7.71,6.32-15.96,6.32-12.72,0-22.67-10.25-22.67-22.97s9.94-22.97,22.67-22.97c6.86,0,11.87,2.69,15.57,6.16l6.09-6.09c-5.17-4.93-12.03-8.71-21.66-8.71-17.42,0-32.07,14.19-32.07,31.61s14.65,31.61,32.07,31.61c9.4,0,16.49-3.09,22.05-8.87,5.7-5.7,7.48-13.72,7.48-20.2,0-2-.15-3.85-.46-5.39h-29.06Zm216.81,6.7c-1.7-4.55-6.86-12.95-17.42-12.95s-19.19,8.25-19.19,20.36c0,11.41,8.63,20.35,20.19,20.35,9.33,0,14.72-5.7,16.96-9.02l-6.94-4.63c-2.32,3.39-5.47,5.63-10.03,5.63s-7.79-2.08-9.87-6.16l27.21-11.26-.92-2.31Zm-27.75,6.79c-.23-7.87,6.09-11.87,10.64-11.87,3.55,0,6.56,1.77,7.56,4.32l-18.19,7.56Zm-22.13,19.73h8.94v-59.82h-8.94v59.82Zm-14.65-34.92h-.31c-2-2.39-5.86-4.55-10.71-4.55-10.18,0-19.5,8.94-19.5,20.43s9.33,20.27,19.5,20.27c4.86,0,8.71-2.16,10.71-4.63h.31v2.93c0,7.79-4.16,11.95-10.87,11.95-5.47,0-8.87-3.93-10.25-7.24l-7.79,3.24c2.23,5.4,8.17,12.03,18.04,12.03,10.48,0,19.35-6.17,19.35-21.2v-36.54h-8.48v3.32Zm-10.25,28.14c-6.17,0-11.33-5.16-11.33-12.25s5.16-12.41,11.33-12.41,10.87,5.24,10.87,12.41-4.78,12.25-10.87,12.25m116.67-53.03h-21.39v59.82h8.92v-22.66h12.47c9.9,0,19.62-7.17,19.62-18.58s-9.73-18.58-19.62-18.58m.23,28.83h-12.7v-20.51h12.7c6.68,0,10.47,5.53,10.47,10.25s-3.79,10.25-10.47,10.25m55.18-8.59c-6.46,0-13.16,2.85-15.93,9.15l7.93,3.31c1.69-3.31,4.85-4.39,8.16-4.39,4.62,0,9.31,2.77,9.39,7.69v.62c-1.62-.92-5.08-2.31-9.31-2.31-8.54,0-17.24,4.69-17.24,13.47,0,8.01,7.01,13.16,14.85,13.16,6.01,0,9.31-2.69,11.39-5.85h.31v4.62h8.62v-22.94c0-10.62-7.92-16.54-18.16-16.54m-1.08,32.78c-2.93,0-7.01-1.46-7.01-5.08,0-4.62,5.08-6.38,9.47-6.38,3.92,0,5.77,.85,8.16,2-.69,5.54-5.46,9.47-10.62,9.47m50.64-31.48l-10.24,25.94h-.31l-10.62-25.94h-9.62l15.93,36.25-9.08,20.16h9.31l24.55-56.41h-9.93Zm-80.42,38.27h8.93v-59.82h-8.93v59.82Z"/>
      <path class="cls-6" d="M99.14,92.95l-50.95,54.07s0,.02,0,.03c1.56,5.87,6.92,10.19,13.29,10.19,2.55,0,4.93-.69,6.98-1.89l.16-.1,57.35-33.09-26.84-29.22Z"/>
      <path class="cls-3" d="M150.68,83.74l-.05-.03-24.76-14.35-27.89,24.82,27.99,27.98,24.62-14.21c4.32-2.34,7.25-6.89,7.25-12.13s-2.89-9.74-7.17-12.08"/>
      <path class="cls-9" d="M48.19,44.39c-.31,1.13-.47,2.32-.47,3.54v95.55c0,1.23,.16,2.41,.47,3.54l52.69-52.69L48.19,44.39Z"/>
      <path class="cls-8" d="M99.51,95.71l26.37-26.36-57.28-33.21c-2.08-1.25-4.51-1.97-7.11-1.97-6.36,0-11.73,4.33-13.3,10.21,0,0,0,0,0,.01l51.33,51.32Z"/>
    </g>
    <g>
      <path class="cls-4" d="M199.94,33.04h4.58v12.41h13.95v-12.41h4.54v29.81h-4.54v-13.07h-13.95v13.07h-4.58v-29.81Z"/>
      <path class="cls-4" d="M230.54,33.04h18.07v4.33h-13.49v8.41h12.16v4.33h-12.16v8.41h13.49v4.33h-18.07v-29.81Z"/>
      <path class="cls-4" d="M255.02,33.04h5.41l13.49,21.9h.25l-.25-5.75v-16.15h4.54v29.81h-4.75l-14.15-23.02h-.25l.25,5.75v17.28h-4.54v-29.81Z"/>
      <path class="cls-4" d="M291.53,37.37h-8.37v-4.33h21.27v4.33h-8.33v25.48h-4.58v-25.48Z"/>
      <path class="cls-4" d="M318.59,33.04h4.58v29.81h-4.58v-29.81Z"/>
    </g>
  </g>
</svg>